<?xml version="1.0" standalone="no"?>
<!DOCTYPE svg PUBLIC "-//W3C//DTD SVG 20010904//EN"
 "http://www.w3.org/TR/2001/REC-SVG-20010904/DTD/svg10.dtd">
<svg version="1.0" xmlns="http://www.w3.org/2000/svg"
 width="880.000000pt" height="880.000000pt" viewBox="0 0 880.000000 880.000000"
 preserveAspectRatio="xMidYMid meet">
<metadata>
Created by potrace 1.14, written by Peter Selinger 2001-2017
</metadata>
<g transform="translate(0.000000,880.000000) scale(0.100000,-0.100000)"
fill="#000000" stroke="none">
<path d="M3676 7378 c-238 -15 -515 -67 -724 -133 -120 -39 -137 -41 -145 -21
-12 30 -325 87 -617 112 -405 36 -851 -7 -928 -89 -76 -80 -50 -580 59 -1138
l21 -107 -63 -103 c-148 -245 -300 -607 -364 -869 -16 -68 -36 -117 -70 -175
-259 -434 -321 -996 -164 -1475 121 -367 363 -679 709 -911 82 -55 390 -219
411 -219 4 0 -10 33 -32 73 -22 39 -45 82 -51 94 -6 12 -23 26 -38 32 -90 31
-337 203 -467 324 -395 369 -569 935 -459 1487 42 212 137 447 239 593 30 42
40 67 39 92 -3 76 105 394 207 610 332 702 886 1239 1546 1498 525 206 1122
258 1780 156 371 -57 829 -184 1129 -314 424 -182 781 -419 1076 -715 93 -93
231 -254 293 -339 l47 -65 -30 -12 c-33 -14 -47 -51 -31 -82 6 -11 41 -30 88
-47 165 -58 427 -206 663 -375 315 -224 606 -505 753 -726 26 -40 47 -75 47
-78 0 -15 -81 -85 -165 -142 -139 -95 -303 -184 -645 -352 -173 -85 -323 -162
-332 -170 -38 -33 -10 -102 41 -102 12 0 38 7 58 15 19 8 36 15 37 15 2 0 -3
-46 -11 -102 -29 -226 -84 -451 -159 -652 -44 -117 -160 -353 -206 -419 -160
-230 -328 -401 -513 -522 -86 -57 -248 -137 -351 -174 -115 -42 -319 -87 -462
-102 -232 -24 -584 -1 -847 56 -38 8 -82 15 -96 15 -51 0 -79 -69 -41 -103 34
-31 361 -88 585 -103 l108 -6 50 -60 c225 -271 521 -914 639 -1388 12 -47 26
-102 31 -122 l10 -38 65 0 64 0 -6 28 c-3 15 -19 79 -35 143 l-29 117 30 66
c65 143 96 253 125 441 50 329 72 414 123 468 54 57 146 26 193 -64 41 -81 51
-161 46 -349 -8 -236 -29 -343 -82 -402 -54 -62 -111 -113 -182 -164 -63 -46
-79 -69 -68 -103 7 -24 57 -45 84 -36 11 3 43 22 71 41 27 19 50 32 50 30 0
-3 -22 -53 -49 -111 l-50 -105 68 0 c43 0 72 5 79 12 17 21 90 210 126 325 21
70 48 129 74 168 22 33 75 121 117 195 105 183 149 246 197 280 68 50 134 33
175 -43 27 -50 22 -181 -11 -292 -49 -163 -156 -370 -275 -530 -37 -50 -71
-96 -75 -102 -5 -10 11 -13 73 -13 l79 0 45 63 c111 156 214 358 267 522 26
81 33 122 37 216 5 111 4 119 -21 175 -34 74 -68 110 -131 140 -118 56 -230
11 -338 -136 -14 -19 -47 -72 -75 -117 l-49 -82 -6 152 c-7 210 -37 312 -114
398 -57 63 -105 84 -193 84 -58 0 -82 -5 -105 -20 -97 -64 -142 -172 -185
-445 -38 -245 -50 -310 -76 -391 -14 -44 -29 -77 -35 -74 -5 4 -9 11 -9 16 0
21 -135 358 -200 498 -89 195 -175 351 -269 492 l-78 117 66 7 c463 46 804
179 1096 426 125 105 138 118 222 215 273 318 454 737 537 1244 13 85 28 186
32 223 l6 68 196 96 c585 288 837 477 797 602 -10 32 -102 169 -175 261 -82
102 -279 298 -410 407 -237 197 -451 344 -700 479 -76 42 -141 82 -144 89 -2
7 -46 71 -97 141 -415 582 -1029 1021 -1759 1261 -608 200 -1225 288 -1764
251z m-1332 -182 c120 -17 273 -44 296 -52 8 -3 -32 -28 -95 -58 -117 -57
-274 -147 -372 -214 -203 -138 -469 -388 -633 -596 -79 -99 -95 -115 -101 -99
-15 41 -69 404 -85 573 -17 183 -14 381 7 406 11 14 114 39 219 54 102 14 637
4 764 -14z"/>
<path d="M2495 5327 c-100 -48 -155 -135 -155 -246 0 -103 51 -185 145 -235
61 -33 167 -36 231 -7 168 77 209 307 76 436 -52 50 -97 69 -177 73 -58 2 -79
-1 -120 -21z"/>
<path d="M3128 4869 c-23 -13 -24 -78 -3 -119 14 -27 14 -29 -17 -55 -37 -32
-77 -30 -173 5 -123 45 -228 10 -280 -93 -64 -130 -8 -254 152 -333 71 -35 85
-38 183 -42 77 -3 123 0 170 12 173 44 311 163 396 344 1 1 25 -10 55 -25 43
-23 69 -29 136 -32 76 -3 88 -1 121 21 48 32 70 71 52 93 -19 22 -38 19 -77
-15 -45 -40 -107 -41 -182 -4 -42 21 -62 40 -99 97 -26 38 -56 73 -67 77 -12
4 -53 -2 -100 -16 -146 -43 -215 -27 -215 50 0 22 -6 36 -16 40 -19 7 -15 8
-36 -5z m367 -153 l23 -23 -41 -84 c-72 -146 -192 -248 -340 -289 -74 -20
-221 -9 -288 22 -138 64 -182 189 -93 267 45 40 100 41 187 5 107 -45 167 -33
247 50 46 47 60 53 147 60 49 4 52 3 43 -14 -5 -9 -32 -38 -60 -63 -53 -48
-67 -87 -30 -87 25 0 132 105 149 148 16 38 24 40 56 8z"/>
<path d="M4755 4850 c-106 -42 -175 -144 -175 -260 0 -111 49 -188 154 -242
51 -27 162 -30 217 -6 50 22 105 73 137 127 23 40 27 57 27 126 0 89 -19 138
-76 194 -74 74 -189 99 -284 61z"/>
<path d="M3128 2311 c-135 -44 -211 -133 -253 -292 -38 -140 -14 -423 52 -622
97 -293 281 -477 506 -507 186 -24 393 35 518 147 44 40 51 79 21 106 -29 27
-59 20 -126 -28 -158 -112 -366 -135 -521 -57 -131 66 -252 253 -300 467 -62
274 -51 484 30 591 34 45 117 84 177 84 135 0 220 -128 253 -379 12 -86 18
-109 36 -123 28 -24 54 -23 80 3 20 20 21 28 15 98 -22 246 -118 436 -252 502
-64 30 -162 35 -236 10z"/>
<path d="M1820 2090 c-80 -124 -152 -305 -207 -514 -34 -134 -43 -330 -19
-426 22 -88 58 -159 103 -203 42 -43 154 -102 210 -112 l38 -6 -17 -152 c-16
-145 -30 -337 -43 -570 l-6 -107 64 0 63 0 12 224 c11 202 45 556 58 597 2 9
34 31 70 49 72 37 162 126 222 218 54 86 138 268 169 367 23 76 27 108 28 210
0 112 -2 124 -28 177 -34 69 -101 131 -164 152 -26 9 -77 16 -113 16 -161 0
-291 -127 -387 -380 -37 -97 -40 -130 -15 -153 42 -37 85 -21 108 41 83 228
160 337 257 363 54 14 136 -11 171 -51 85 -101 50 -336 -89 -595 -102 -190
-209 -279 -333 -276 -57 1 -137 32 -179 69 -37 32 -72 114 -84 196 -25 169 50
482 173 717 l50 96 -20 39 c-45 86 -45 86 -92 14z"/>
<path d="M7146 1641 c-3 -5 24 -33 60 -62 229 -187 322 -283 399 -414 51 -86
95 -141 95 -118 0 6 -9 40 -20 75 -21 68 -84 167 -164 255 -57 64 -209 186
-292 236 -67 40 -70 41 -78 28z"/>
<path d="M7600 1473 c0 -3 26 -45 58 -92 96 -141 154 -259 217 -435 18 -51 31
-74 36 -65 22 41 -55 255 -142 394 -83 132 -169 233 -169 198z"/>
</g>
</svg>
